# xmcd
#
# Track frame offsets:
#	150
#	12421
#	20653
#	31250
#	48663
#	63436
#	80637
#	93537
#	105452
#	126381
#	142753
#	152725
#	162706
#	174453
#
# Disc length: 2459 seconds
# Revision: 0
# Processed by: cddbd v1.5.2PL0 Copyright (c) Steve Scherf et al.
# Submitted via: dBpowerAMP V12.0
#
DISCID=bb09990e
DTITLE=Various Artist - Bill Monroe Centennial Celebration: A Classic Bluegrass Tribute, Disc 2/2
DYEAR=2011
DGENRE=Country
TTITLE0=Michael Cleveland - Old Brown County Barn
TTITLE1=The Vern Williams Band - You'd Better Get Right
TTITLE2=Joe Val and The New England Bluegrass Boys - Voice From on High
TTITLE3=The Bluegrass Album Band - Lonesome Moonlight Waltz
TTITLE4=The Nashville Bluegrass Band - Dog House Blues
TTITLE5=The Johnson Mountain Boys - Walls of Time
TTITLE6=Tony Rice - Big Mon
TTITLE7=IIIrd Tyme Out - Footprints in the Snow
TTITLE8=Michael Cleveland and Flamekeeper - Jerusalem Ridge
TTITLE9=Bobby Osborne and The Rocky Top X-Press - Mansions for Me
TTITLE10=Ralph Stanley and The Clinch Mountain Boys with Charlie Sizemore - In Despair
TTITLE11=The Nashville Bluegrass Band - You're Drifting Away
TTITLE12=Hazel Dickens and Alice Gerrard - True Life Blues
TTITLE13=Joe Val and The New England Bluegrass Boys - Goodbye Old Pal
EXTD=
EXTT0=
EXTT1=
EXTT2=
EXTT3=
EXTT4=
EXTT5=
EXTT6=
EXTT7=
EXTT8=
EXTT9=
EXTT10=
EXTT11=
EXTT12=
EXTT13=
PLAYORDER=
